<svg xmlns="http://www.w3.org/2000/svg" width="512" height="512" viewBox="0 0 512 512" version="1.1">
	<path d="M 241.500 0.662 C 234.428 1.488, 220.488 4.867, 212.889 7.597 C 194.640 14.152, 180.602 23.208, 165.905 37.905 C 147.086 56.724, 135.992 77.064, 130.401 103 C 127.839 114.885, 127.839 141.115, 130.401 153 C 135.987 178.914, 147.058 199.221, 165.905 218.129 C 189.383 241.681, 217.069 253.961, 250.500 255.649 C 278.135 257.046, 305.209 249.195, 329.116 232.854 C 339.359 225.853, 354.622 210.447, 361.666 200 C 391.237 156.143, 391.237 99.857, 361.666 56 C 358.885 51.875, 352.362 44.120, 347.171 38.767 C 329.503 20.550, 308.194 8.638, 283 2.894 C 274.524 0.962, 250.150 -0.349, 241.500 0.662 M 233.042 300.089 C 220.547 301.705, 209.366 304.287, 196.048 308.632 C 128.118 330.796, 77.949 389.540, 66.500 460.323 C 64.163 474.776, 63.507 491.169, 65.047 496.668 C 66.719 502.641, 72.897 509.061, 78.616 510.770 C 84.608 512.560, 427.392 512.560, 433.384 510.770 C 438.697 509.183, 445.183 502.697, 446.770 497.384 C 448.245 492.448, 448.308 484.803, 446.980 472 C 442.485 428.678, 424.084 388.940, 394.019 357.628 C 363.967 326.330, 324.199 306.188, 281.136 300.455 C 269.684 298.930, 243.537 298.731, 233.042 300.089" stroke="none" fill="#000000" fill-rule="evenodd"/>
</svg>