<svg xmlns="http://www.w3.org/2000/svg" width="512" height="512" viewBox="0 0 512 512" version="1.1">
	<path d="M 243.500 1.020 C 228.166 3.352, 211.097 11.374, 199.654 21.626 C 196.662 24.307, 155.607 68.350, 108.421 119.500 C 61.236 170.650, 19.294 216.100, 15.217 220.500 C 7.087 229.274, 2.873 236.564, 1.056 245 C 0.175 249.095, -0.048 277.325, 0.186 355.500 L 0.500 460.500 3.179 467.835 C 10.522 487.936, 25.536 502.588, 45.500 509.135 C 52.340 511.378, 53.604 511.439, 100.750 511.776 L 149 512.122 149.003 446.811 C 149.006 377.726, 149.405 369.824, 153.640 355 C 158.993 336.261, 167.509 322.209, 182.427 307.500 C 211.212 279.119, 251.472 269.699, 289.500 282.445 C 322.255 293.425, 348.516 321.135, 358.355 355.100 C 362.591 369.723, 362.994 377.684, 362.997 446.811 L 363 512.122 411.250 511.785 L 459.500 511.448 467.715 508.692 C 489.014 501.545, 506.244 482.497, 510.177 461.750 C 510.880 458.038, 511.803 455, 512.228 455 C 512.653 455, 513 407.900, 513 350.333 C 513 292.767, 512.688 245.979, 512.307 246.360 C 511.926 246.741, 511.013 244.679, 510.280 241.776 C 509.546 238.874, 507.495 234.182, 505.723 231.350 C 502.763 226.619, 327.762 36.360, 315.152 24.163 C 304.465 13.826, 291.501 6.582, 277.093 2.895 C 268.210 0.622, 252.046 -0.280, 243.500 1.020 M 0.482 351.500 C 0.482 409.250, 0.602 432.728, 0.750 403.673 C 0.897 374.619, 0.897 327.369, 0.750 298.673 C 0.602 269.978, 0.482 293.750, 0.482 351.500 M 240.512 321.614 C 237.219 322.410, 231.144 324.719, 227.012 326.745 C 216.516 331.892, 203.888 344.520, 198.757 355 C 191.951 368.900, 192.031 367.842, 192.015 443.750 L 192 512 256 512 L 320 512 319.983 444.250 C 319.963 368.856, 319.976 369.027, 313.350 355.330 C 310.413 349.258, 307.643 345.569, 301.010 338.898 C 291.534 329.366, 282.859 324.356, 270.985 321.558 C 262.952 319.665, 248.466 319.691, 240.512 321.614" stroke="none" fill="#000000" fill-rule="evenodd"/>
</svg>