<svg xmlns="http://www.w3.org/2000/svg" width="512" height="512" viewBox="0 0 512 512" version="1.1">
	<path d="M 91.585 1.107 C 70.754 4.145, 49.856 14.226, 33.612 29.072 C 20.471 41.082, 8.557 61.303, 3.215 80.663 L 0.500 90.500 0.500 256 L 0.500 421.500 3.215 431.337 C 13.862 469.923, 42.110 498.168, 80.663 508.778 L 90.500 511.486 222.500 511.796 C 315.273 512.014, 356.877 511.777, 362.500 510.997 C 372.852 509.562, 380.635 507.435, 390.304 503.398 C 407.016 496.420, 410.972 493.176, 449.820 454.582 C 486.184 418.457, 492.706 411.136, 499.343 399 C 503.862 390.737, 509.637 373.430, 510.689 365 C 511.298 360.123, 511.631 365.490, 512.024 386.500 C 512.312 401.900, 512.543 342.725, 512.536 255 C 512.530 167.275, 512.294 120.925, 512.013 152 C 511.731 183.075, 511.151 207.251, 510.725 205.725 C 509.692 202.030, 503.774 195.595, 499.575 193.603 C 497.718 192.721, 493.660 192, 490.559 192 C 481.845 192, 475.728 195.825, 471.367 204 C 469.618 207.278, 469.482 211.063, 469.218 263.750 L 468.936 320 423.218 320.017 C 371.403 320.037, 368.909 320.297, 355.034 327.138 C 343.257 332.943, 332.943 343.257, 327.138 355.034 C 320.296 368.911, 320.037 371.397, 320.017 423.271 L 320 469.041 206.250 468.771 L 92.500 468.500 85.758 465.877 C 66.718 458.469, 53.531 445.282, 46.123 426.242 L 43.500 419.500 43.500 256 L 43.500 92.500 46.123 85.758 C 53.531 66.718, 66.718 53.531, 85.758 46.123 L 92.500 43.500 198.500 43 C 315.006 42.450, 307.962 42.851, 314.343 36.411 C 325.645 25.004, 321.254 6.211, 306.101 1.138 C 301.996 -0.236, 100.994 -0.266, 91.585 1.107 M 430.500 2.642 C 420.372 4.781, 408.730 10.760, 400 18.305 C 388.384 28.345, 131.790 285.854, 127.776 291.500 C 118.164 305.020, 112.119 318.693, 109.010 333.949 C 107.148 343.088, 106.936 347.072, 107.200 367.976 C 107.496 391.347, 107.532 391.700, 110 395.342 C 111.375 397.372, 114.260 400.263, 116.411 401.766 L 120.323 404.500 142.911 404.826 C 157.017 405.029, 168.317 404.708, 173 403.971 C 188.720 401.498, 205.637 394.631, 218.890 385.344 C 225.740 380.544, 482.351 125.287, 494.688 111.001 C 512.431 90.456, 516.439 62.561, 505.106 38.500 C 492.179 11.054, 461.189 -3.841, 430.500 2.642 M 438.994 43.876 C 437.615 44.327, 435.140 45.410, 433.494 46.282 C 431.847 47.153, 369.715 108.759, 295.422 183.183 C 148.860 330.005, 156.964 321.279, 152.059 337.535 C 150.711 342, 149.856 347.846, 149.718 353.535 L 149.500 362.500 158.637 362.269 C 169.511 361.995, 180.419 358.880, 189.609 353.425 C 194.365 350.602, 225.742 319.739, 331.203 214.149 C 449.554 95.654, 466.833 77.979, 467.843 74.384 C 471.153 62.607, 466.333 51.345, 455.622 45.827 C 451.313 43.607, 442.849 42.614, 438.994 43.876 M 0.488 256 C 0.488 343.725, 0.606 379.612, 0.750 335.750 C 0.894 291.887, 0.894 220.112, 0.750 176.250 C 0.606 132.387, 0.488 168.275, 0.488 256 M 373.907 365.327 C 371.483 366.606, 368.150 369.570, 366.500 371.912 L 363.500 376.170 363.220 421.716 L 362.941 467.262 366.220 466.635 C 368.024 466.291, 373.325 464.152, 378 461.882 C 386.289 457.857, 387.381 456.872, 422.067 422.127 C 459.645 384.486, 461.119 382.687, 465.991 368.525 L 467.892 363 423.103 363 L 378.315 363 373.907 365.327" stroke="none" fill="#000000" fill-rule="evenodd"/>
</svg>