<svg xmlns="http://www.w3.org/2000/svg" width="512" height="512" viewBox="0 0 512 512" version="1.1">
	<path d="M 232.500 1.054 C 162.204 8.303, 99.336 42.271, 55.849 96.500 C 5.962 158.709, -11.886 243.214, 8.497 320.693 C 13.339 339.098, 17.677 350.572, 26.950 369.500 C 46.847 410.114, 77.367 444.668, 115.730 470.017 C 128.206 478.261, 154.115 491.304, 168.357 496.510 C 180.127 500.812, 200.861 506.207, 214 508.385 C 283.670 519.934, 353.588 502.635, 411 459.644 C 422.723 450.865, 444.738 429.546, 454.519 417.500 C 471.024 397.174, 487.519 368.154, 496.501 343.643 C 503.619 324.218, 510.982 289.761, 510.995 275.809 C 510.998 273.229, 511.450 270.840, 512 270.500 C 512.599 270.130, 512.994 263.590, 512.985 254.191 C 512.974 243.691, 512.649 238.996, 512 240 C 511.302 241.079, 511.025 240.098, 511.011 236.500 C 510.952 221.873, 503.752 188.155, 496.408 168.115 C 492.005 156.103, 479.714 130.933, 473.400 121 C 457.626 96.185, 432.026 68.246, 410 51.808 C 374.863 25.585, 336.171 9.313, 293.713 2.902 C 278.406 0.591, 246.371 -0.376, 232.500 1.054 M 185.500 55.008 C 152.448 66.740, 119.174 89.055, 97.042 114.334 C 88.576 124.002, 77.842 138.394, 73.983 145.250 L 71.872 149 106.369 149 L 140.865 149 141.565 146.750 C 141.950 145.512, 145.987 137.030, 150.537 127.900 C 162.862 103.171, 179.297 77.066, 194.703 57.750 C 201.148 49.669, 200.818 49.571, 185.500 55.008 M 313 51.487 C 313 51.754, 316.535 56.624, 320.855 62.309 C 336.921 83.450, 349.206 103.295, 361.519 128 C 366.043 137.075, 370.057 145.512, 370.439 146.750 L 371.135 149 405.631 149 L 440.128 149 438.017 145.250 C 434.263 138.580, 423.635 124.275, 415.482 114.916 C 392.311 88.320, 359.435 66.352, 325.153 54.559 C 314.885 51.027, 313 50.550, 313 51.487 M 245.024 63.717 C 232.341 78.361, 220.420 94.191, 209.630 110.717 C 201.636 122.960, 188 146.608, 188 148.227 C 188 148.652, 218.600 149, 256 149 C 293.400 149, 324 148.687, 324 148.304 C 324 147.922, 321.010 142.184, 317.356 135.554 C 309.097 120.570, 296.645 101.423, 285.575 86.685 C 276.134 74.116, 257.277 52, 256 52 C 255.545 52, 250.606 57.273, 245.024 63.717 M 50.232 199.750 C 45.038 219.093, 43 234.941, 43 256 C 43 277.059, 45.038 292.907, 50.232 312.250 L 52.314 320 89.224 320 C 124.062 320, 126.103 319.901, 125.574 318.232 C 124.110 313.622, 120.947 297.308, 119.421 286.500 C 117.151 270.426, 117.151 241.574, 119.421 225.500 C 120.947 214.692, 124.110 198.378, 125.574 193.768 C 126.103 192.099, 124.062 192, 89.224 192 L 52.314 192 50.232 199.750 M 168.506 197.250 C 163.829 212.872, 160 239.322, 160 256 C 160 272.765, 163.825 298.988, 168.570 314.750 L 170.150 320 256 320 L 341.850 320 343.430 314.750 C 348.175 298.988, 352 272.765, 352 256 C 352 239.235, 348.175 213.012, 343.430 197.250 L 341.850 192 255.964 192 L 170.077 192 168.506 197.250 M 386.426 193.768 C 390.846 207.694, 394.280 234.959, 394.264 256 C 394.247 277.133, 390.811 304.417, 386.426 318.232 C 385.897 319.901, 387.939 320, 422.783 320 L 459.700 320 462.832 307.250 C 471.102 273.581, 471.119 239.034, 462.882 204.750 L 459.818 192 422.842 192 C 387.941 192, 385.897 192.099, 386.426 193.768 M 0.405 255.500 C 0.406 264.300, 0.559 267.766, 0.745 263.203 C 0.930 258.639, 0.929 251.439, 0.742 247.203 C 0.555 242.966, 0.404 246.700, 0.405 255.500 M 73.983 366.750 C 75.144 368.813, 78.885 374.406, 82.297 379.181 C 103.700 409.133, 130.978 432.006, 164.500 448.109 C 175.905 453.588, 195.536 461, 198.640 461 C 199.513 461, 197.952 458.324, 194.703 454.250 C 178.523 433.963, 160.681 405.207, 148.500 379.783 L 140.500 363.086 106.186 363.043 L 71.872 363 73.983 366.750 M 188 363.696 C 188 364.078, 190.982 369.816, 194.626 376.446 C 202.856 391.417, 219.208 416.266, 229.539 429.500 C 239.113 441.765, 254.954 460, 256.034 460 C 258.380 460, 286.887 424.565, 298.764 406.884 C 307.721 393.550, 324 365.660, 324 363.649 C 324 363.292, 293.400 363, 256 363 C 218.600 363, 188 363.313, 188 363.696 M 370.435 365.250 C 370.050 366.488, 366.032 374.925, 361.505 384 C 349.095 408.879, 336.907 428.569, 320.788 449.778 C 316.432 455.511, 313.104 460.437, 313.392 460.725 C 314.483 461.816, 337.040 453.278, 350 446.868 C 376.965 433.530, 397.852 417.481, 416.547 395.736 C 424.890 386.032, 435.800 371.145, 438.891 365.250 L 440.070 363 405.603 363 L 371.135 363 370.435 365.250" stroke="none" fill="#000000" fill-rule="evenodd"/>
</svg>