<svg xmlns="http://www.w3.org/2000/svg" width="512" height="512" viewBox="0 0 512 512" version="1.1">
	<path d="M 94.072 1.486 C 86.720 3.157, 75.364 8.357, 69.500 12.737 C 56.836 22.197, 36.990 40.929, 30.500 49.546 C 17.812 66.394, 8.664 86.882, 3.799 109.352 C 1.918 118.039, 1.597 122.668, 1.569 141.500 C 1.533 165.958, 2.740 174.850, 9.376 199 C 37.820 302.513, 147.420 424.079, 264 481.422 C 309.270 503.689, 345.345 512.965, 381.500 511.635 C 404.642 510.783, 421.126 506.822, 438.495 497.940 C 456.450 488.757, 466.656 480.334, 484.374 460.076 C 499.436 442.854, 501.514 440.053, 505.572 431.500 C 513.479 414.835, 513.930 397.089, 506.906 379 C 501.618 365.379, 496.994 360.445, 469.873 339.480 C 456.468 329.118, 442.187 318.002, 438.139 314.778 C 434.090 311.554, 428.080 307.555, 424.782 305.890 C 406.272 296.546, 382.533 296.782, 364.200 306.493 C 359.975 308.730, 348.632 317.600, 333.500 330.499 C 313.516 347.533, 309.100 350.867, 307.110 350.424 C 303.379 349.593, 280.223 337.770, 270.277 331.617 C 227.296 305.030, 192.762 267.649, 170.396 223.500 C 166.495 215.800, 162.741 208.063, 162.054 206.307 L 160.804 203.113 179.152 181.417 C 202.897 153.340, 201.232 155.467, 205.389 147.903 C 217.705 125.497, 214.518 93.692, 198.059 74.750 C 196.028 72.413, 185.188 58.616, 173.970 44.091 C 149.569 12.497, 145.107 8.554, 127.500 3.028 C 118.405 0.174, 102.980 -0.538, 94.072 1.486 M 289.183 2.532 C 276.787 8.859, 273.602 24.334, 282.546 34.782 C 287.873 41.006, 291.522 42.225, 307.500 43.118 C 369.739 46.595, 423.451 81.874, 451.379 137.621 C 461.810 158.442, 467.464 180.087, 468.875 204.608 C 469.789 220.480, 471.021 224.150, 477.218 229.454 C 487.819 238.529, 503.339 235.182, 509.552 222.483 C 512.247 216.974, 512.288 216.615, 511.649 204.182 C 508.918 151.070, 488.581 103.589, 452.528 66.156 C 413.361 25.489, 363.624 2.940, 307.500 0.405 C 294.780 -0.170, 294.385 -0.124, 289.183 2.532 M 292.558 86.204 C 286.799 87.790, 279.671 95.278, 278.143 101.348 C 275.839 110.496, 279.714 119.990, 287.650 124.641 C 291.459 126.873, 294.058 127.476, 302.816 128.159 C 325.689 129.945, 343.631 137.951, 358.840 153.160 C 374.049 168.369, 382.055 186.311, 383.841 209.184 C 384.831 221.869, 387.465 227.467, 394.277 231.362 C 403.576 236.679, 412.584 235.512, 420.076 228.019 C 426.380 221.715, 427.431 217.179, 426.031 202.330 C 421.262 151.758, 388.761 109.717, 341.234 92.642 C 326.270 87.266, 300.892 83.910, 292.558 86.204" stroke="none" fill="#000000" fill-rule="evenodd"/>
</svg>